<?xml version="1.0" encoding="UTF-8" standalone="no"?>
<svg
   xmlns:dc="http://purl.org/dc/elements/1.1/"
   xmlns:cc="http://creativecommons.org/ns#"
   xmlns:rdf="http://www.w3.org/1999/02/22-rdf-syntax-ns#"
   xmlns:svg="http://www.w3.org/2000/svg"
   xmlns="http://www.w3.org/2000/svg"
   xmlns:sodipodi="http://sodipodi.sourceforge.net/DTD/sodipodi-0.dtd"
   xmlns:inkscape="http://www.inkscape.org/namespaces/inkscape"
   width="60cm"
   height="60cm"
   viewBox="0 0 600 600"
   version="1.1"
   id="svg8"
   inkscape:version="1.0.1 (3bc2e813f5, 2020-09-07)"
   sodipodi:docname="BoxLokaVerkFIX.svg">
  <defs
     id="defs2" />
  <sodipodi:namedview
     id="base"
     pagecolor="#ffffff"
     bordercolor="#666666"
     borderopacity="1.0"
     inkscape:pageopacity="0.0"
     inkscape:pageshadow="2"
     inkscape:zoom="0.7"
     inkscape:cx="1319.8132"
     inkscape:cy="880.11521"
     inkscape:document-units="cm"
     inkscape:current-layer="box6066"
     inkscape:document-rotation="0"
     showgrid="true"
     units="cm"
     showguides="false"
     inkscape:snap-global="false"
     inkscape:window-width="1920"
     inkscape:window-height="1017"
     inkscape:window-x="-8"
     inkscape:window-y="-8"
     inkscape:window-maximized="1">
    <inkscape:grid
       type="xygrid"
       id="grid20"
       units="in"
       spacingx="6.35"
       spacingy="6.35"
       empspacing="4" />
  </sodipodi:namedview>
  <metadata
     id="metadata5">
    <rdf:RDF>
      <cc:Work
         rdf:about="">
        <dc:format>image/svg+xml</dc:format>
        <dc:type
           rdf:resource="http://purl.org/dc/dcmitype/StillImage" />
        <dc:title />
      </cc:Work>
    </rdf:RDF>
  </metadata>
  <g
     inkscape:label="Layer 1"
     inkscape:groupmode="layer"
     id="layer1">
    <rect
       style="fill:#aa0000;fill-opacity:0;stroke-width:0.264583"
       id="rect953"
       width="6.8035712"
       height="24.190477"
       x="189.55507"
       y="167.82143" />
    <rect
       style="fill:#aa0000;fill-opacity:0;stroke-width:0.264583"
       id="rect857"
       width="10.866798"
       height="20.883184"
       x="188.70461"
       y="244.73959" />
    <rect
       style="fill:#666666;fill-opacity:0;stroke-width:0.264583;opacity:1;"
       id="rect859"
       width="36.348656"
       height="37.150467"
       x="46.772163"
       y="249.897" />
    <g
       id="box3582"
       transform="translate(222.1, 81.5)">
      <path
         style="fill:none;stroke:#0000FF;stroke-linecap:butt;stroke-linejoin:miter;stroke-width:0.1"
         id="box3582-lid"
         d="M 0 0 h 3.76 v -3.1 h 7.92 v 3.1 h 3.76 h 3.76 v -3.1 h 7.92 v 3.1 h 3.76 h 3.76 v -3.1 h 7.92 v 3.1 h 3.76 h 3.76 v -3.1 h 7.92 v 3.1 h 3.76 h 3.76 v -3.1 h 7.92 v 3.1 h 3.76 v 4.0375 h 3.1 v 8.475 h -3.1 v 4.0375 v 4.0375 h 3.1 v 8.475 h -3.1 v 4.0375 v 4.0375 h 3.1 v 8.475 h -3.1 v 4.0375 v 4.0375 h 3.1 v 8.475 h -3.1 v 4.0375 h -3.76 v 3.1 h -7.92 v -3.1 h -3.76 h -3.76 v 3.1 h -7.92 v -3.1 h -3.76 h -3.76 v 3.1 h -7.92 v -3.1 h -3.76 h -3.76 v 3.1 h -7.92 v -3.1 h -3.76 h -3.76 v 3.1 h -7.92 v -3.1 h -3.76 v -4.0375 h -3.1 v -8.475 h 3.1 v -4.0375 v -4.0375 h -3.1 v -8.475 h 3.1 v -4.0375 v -4.0375 h -3.1 v -8.475 h 3.1 v -4.0375 v -4.0375 h -3.1 v -8.475 h 3.1 v -4.0375" />
      <path
         style="fill:none;stroke:#0000FF;stroke-linecap:butt;stroke-linejoin:miter;stroke-width:0.1"
         id="box3582-longside1"
         d="M -3.1 75.5 v -3.1 h 3.1 h 3.96 v 3.1 h 7.52 v -3.1 h 3.96 h 3.96 v 3.1 h 7.52 v -3.1 h 3.96 h 3.96 v 3.1 h 7.52 v -3.1 h 3.96 h 3.96 v 3.1 h 7.52 v -3.1 h 3.96 h 3.96 v 3.1 h 7.52 v -3.1 h 3.96 h 3.1 v 3.1 v 3.66 h -3.1 v 6.92 h 3.1 v 3.66 v 3.66 h -3.1 v 6.92 h 3.1 v 3.66 v 3.66 h -3.1 v 6.92 h 3.1 v 3.66 v 3.66 h -3.1 v 6.92 h 3.1 v 3.66 v 3.66 h -3.1 v 6.92 h 3.1 v 3.66 v 3.1 h -3.1 h -3.96 v -3.1 h -7.52 v 3.1 h -3.96 h -3.96 v -3.1 h -7.52 v 3.1 h -3.96 h -3.96 v -3.1 h -7.52 v 3.1 h -3.96 h -3.96 v -3.1 h -7.52 v 3.1 h -3.96 h -3.96 v -3.1 h -7.52 v 3.1 h -3.96 h -3.1 v -3.1 v -3.66 h 3.1 v -6.92 h -3.1 v -3.66 v -3.66 h 3.1 v -6.92 h -3.1 v -3.66 v -3.66 h 3.1 v -6.92 h -3.1 v -3.66 v -3.66 h 3.1 v -6.92 h -3.1 v -3.66 v -3.66 h 3.1 v -6.92 h -3.1 v -3.66" />
      <path
         style="fill:none;stroke:#0000FF;stroke-linecap:butt;stroke-linejoin:miter;stroke-width:0.1"
         id="box3582-base"
         d="M 0 156 h 3.76 v -3.1 h 7.92 v 3.1 h 3.76 h 3.76 v -3.1 h 7.92 v 3.1 h 3.76 h 3.76 v -3.1 h 7.92 v 3.1 h 3.76 h 3.76 v -3.1 h 7.92 v 3.1 h 3.76 h 3.76 v -3.1 h 7.92 v 3.1 h 3.76 v 4.0375 h 3.1 v 8.475 h -3.1 v 4.0375 v 4.0375 h 3.1 v 8.475 h -3.1 v 4.0375 v 4.0375 h 3.1 v 8.475 h -3.1 v 4.0375 v 4.0375 h 3.1 v 8.475 h -3.1 v 4.0375 h -3.76 v 3.1 h -7.92 v -3.1 h -3.76 h -3.76 v 3.1 h -7.92 v -3.1 h -3.76 h -3.76 v 3.1 h -7.92 v -3.1 h -3.76 h -3.76 v 3.1 h -7.92 v -3.1 h -3.76 h -3.76 v 3.1 h -7.92 v -3.1 h -3.76 v -4.0375 h -3.1 v -8.475 h 3.1 v -4.0375 v -4.0375 h -3.1 v -8.475 h 3.1 v -4.0375 v -4.0375 h -3.1 v -8.475 h 3.1 v -4.0375 v -4.0375 h -3.1 v -8.475 h 3.1 v -4.0375" />
      <path
         style="fill:none;stroke:#0000FF;stroke-linecap:butt;stroke-linejoin:miter;stroke-width:0.1"
         id="box3582-longside2"
         d="M -3.1 231.5 v -3.1 h 3.1 h 3.96 v 3.1 h 7.52 v -3.1 h 3.96 h 3.96 v 3.1 h 7.52 v -3.1 h 3.96 h 3.96 v 3.1 h 7.52 v -3.1 h 3.96 h 3.96 v 3.1 h 7.52 v -3.1 h 3.96 h 3.96 v 3.1 h 7.52 v -3.1 h 3.96 h 3.1 v 3.1 v 3.66 h -3.1 v 6.92 h 3.1 v 3.66 v 3.66 h -3.1 v 6.92 h 3.1 v 3.66 v 3.66 h -3.1 v 6.92 h 3.1 v 3.66 v 3.66 h -3.1 v 6.92 h 3.1 v 3.66 v 3.66 h -3.1 v 6.92 h 3.1 v 3.66 v 3.1 h -3.1 h -3.96 v -3.1 h -7.52 v 3.1 h -3.96 h -3.96 v -3.1 h -7.52 v 3.1 h -3.96 h -3.96 v -3.1 h -7.52 v 3.1 h -3.96 h -3.96 v -3.1 h -7.52 v 3.1 h -3.96 h -3.96 v -3.1 h -7.52 v 3.1 h -3.96 h -3.1 v -3.1 v -3.66 h 3.1 v -6.92 h -3.1 v -3.66 v -3.66 h 3.1 v -6.92 h -3.1 v -3.66 v -3.66 h 3.1 v -6.92 h -3.1 v -3.66 v -3.66 h 3.1 v -6.92 h -3.1 v -3.66 v -3.66 h 3.1 v -6.92 h -3.1 v -3.66" />
      <path
         style="fill:none;stroke:#0000FF;stroke-linecap:butt;stroke-linejoin:miter;stroke-width:0.1"
         id="box3582-endface2"
         d="M 83.4 0 h 3.1 h 3.46 v -3.1 h 7.32 v 3.1 h 3.46 h 3.46 v -3.1 h 7.32 v 3.1 h 3.46 h 3.46 v -3.1 h 7.32 v 3.1 h 3.46 h 3.46 v -3.1 h 7.32 v 3.1 h 3.46 h 3.46 v -3.1 h 7.32 v 3.1 h 3.46 h 3.1 v 4.2375 h -3.1 v 8.075 h 3.1 v 4.2375 v 4.2375 h -3.1 v 8.075 h 3.1 v 4.2375 v 4.2375 h -3.1 v 8.075 h 3.1 v 4.2375 v 4.2375 h -3.1 v 8.075 h 3.1 v 4.2375 h -3.1 h -3.46 v 3.1 h -7.32 v -3.1 h -3.46 h -3.46 v 3.1 h -7.32 v -3.1 h -3.46 h -3.46 v 3.1 h -7.32 v -3.1 h -3.46 h -3.46 v 3.1 h -7.32 v -3.1 h -3.46 h -3.46 v 3.1 h -7.32 v -3.1 h -3.46 h -3.1 v -4.2375 h 3.1 v -8.075 h -3.1 v -4.2375 v -4.2375 h 3.1 v -8.075 h -3.1 v -4.2375 v -4.2375 h 3.1 v -8.075 h -3.1 v -4.2375 v -4.2375 h 3.1 v -8.075 h -3.1 v -4.2375" />
      <path
         style="fill:none;stroke:#0000FF;stroke-linecap:butt;stroke-linejoin:miter;stroke-width:0.1"
         id="box3582-endface1"
         d="M 83.4 156 h 3.1 h 3.46 v -3.1 h 7.32 v 3.1 h 3.46 h 3.46 v -3.1 h 7.32 v 3.1 h 3.46 h 3.46 v -3.1 h 7.32 v 3.1 h 3.46 h 3.46 v -3.1 h 7.32 v 3.1 h 3.46 h 3.46 v -3.1 h 7.32 v 3.1 h 3.46 h 3.1 v 4.2375 h -3.1 v 8.075 h 3.1 v 4.2375 v 4.2375 h -3.1 v 8.075 h 3.1 v 4.2375 v 4.2375 h -3.1 v 8.075 h 3.1 v 4.2375 v 4.2375 h -3.1 v 8.075 h 3.1 v 4.2375 h -3.1 h -3.46 v 3.1 h -7.32 v -3.1 h -3.46 h -3.46 v 3.1 h -7.32 v -3.1 h -3.46 h -3.46 v 3.1 h -7.32 v -3.1 h -3.46 h -3.46 v 3.1 h -7.32 v -3.1 h -3.46 h -3.46 v 3.1 h -7.32 v -3.1 h -3.46 h -3.1 v -4.2375 h 3.1 v -8.075 h -3.1 v -4.2375 v -4.2375 h 3.1 v -8.075 h -3.1 v -4.2375 v -4.2375 h 3.1 v -8.075 h -3.1 v -4.2375 v -4.2375 h 3.1 v -8.075 h -3.1 v -4.2375" />
    </g>
    <g
       id="box931"
       transform="translate(222.1, 81.5)">
      <path
         style="fill:none;stroke:#0000FF;stroke-linecap:butt;stroke-linejoin:miter;stroke-width:0.1"
         id="box931-lid"
         d="M 0 0 h 3.76 v -3.1 h 7.92 v 3.1 h 3.76 h 3.76 v -3.1 h 7.92 v 3.1 h 3.76 h 3.76 v -3.1 h 7.92 v 3.1 h 3.76 h 3.76 v -3.1 h 7.92 v 3.1 h 3.76 h 3.76 v -3.1 h 7.92 v 3.1 h 3.76 v 4.0375 h 3.1 v 8.475 h -3.1 v 4.0375 v 4.0375 h 3.1 v 8.475 h -3.1 v 4.0375 v 4.0375 h 3.1 v 8.475 h -3.1 v 4.0375 v 4.0375 h 3.1 v 8.475 h -3.1 v 4.0375 h -3.76 v 3.1 h -7.92 v -3.1 h -3.76 h -3.76 v 3.1 h -7.92 v -3.1 h -3.76 h -3.76 v 3.1 h -7.92 v -3.1 h -3.76 h -3.76 v 3.1 h -7.92 v -3.1 h -3.76 h -3.76 v 3.1 h -7.92 v -3.1 h -3.76 v -4.0375 h -3.1 v -8.475 h 3.1 v -4.0375 v -4.0375 h -3.1 v -8.475 h 3.1 v -4.0375 v -4.0375 h -3.1 v -8.475 h 3.1 v -4.0375 v -4.0375 h -3.1 v -8.475 h 3.1 v -4.0375" />
      <path
         style="fill:none;stroke:#0000FF;stroke-linecap:butt;stroke-linejoin:miter;stroke-width:0.1"
         id="box931-longside1"
         d="M -3.1 75.5 v -3.1 h 3.1 h 3.96 v 3.1 h 7.52 v -3.1 h 3.96 h 3.96 v 3.1 h 7.52 v -3.1 h 3.96 h 3.96 v 3.1 h 7.52 v -3.1 h 3.96 h 3.96 v 3.1 h 7.52 v -3.1 h 3.96 h 3.96 v 3.1 h 7.52 v -3.1 h 3.96 h 3.1 v 3.1 v 3.66 h -3.1 v 6.92 h 3.1 v 3.66 v 3.66 h -3.1 v 6.92 h 3.1 v 3.66 v 3.66 h -3.1 v 6.92 h 3.1 v 3.66 v 3.66 h -3.1 v 6.92 h 3.1 v 3.66 v 3.66 h -3.1 v 6.92 h 3.1 v 3.66 v 3.1 h -3.1 h -3.96 v -3.1 h -7.52 v 3.1 h -3.96 h -3.96 v -3.1 h -7.52 v 3.1 h -3.96 h -3.96 v -3.1 h -7.52 v 3.1 h -3.96 h -3.96 v -3.1 h -7.52 v 3.1 h -3.96 h -3.96 v -3.1 h -7.52 v 3.1 h -3.96 h -3.1 v -3.1 v -3.66 h 3.1 v -6.92 h -3.1 v -3.66 v -3.66 h 3.1 v -6.92 h -3.1 v -3.66 v -3.66 h 3.1 v -6.92 h -3.1 v -3.66 v -3.66 h 3.1 v -6.92 h -3.1 v -3.66 v -3.66 h 3.1 v -6.92 h -3.1 v -3.66" />
      <path
         style="fill:none;stroke:#0000FF;stroke-linecap:butt;stroke-linejoin:miter;stroke-width:0.1"
         id="box931-base"
         d="M 0 156 h 3.76 v -3.1 h 7.92 v 3.1 h 3.76 h 3.76 v -3.1 h 7.92 v 3.1 h 3.76 h 3.76 v -3.1 h 7.92 v 3.1 h 3.76 h 3.76 v -3.1 h 7.92 v 3.1 h 3.76 h 3.76 v -3.1 h 7.92 v 3.1 h 3.76 v 4.0375 h 3.1 v 8.475 h -3.1 v 4.0375 v 4.0375 h 3.1 v 8.475 h -3.1 v 4.0375 v 4.0375 h 3.1 v 8.475 h -3.1 v 4.0375 v 4.0375 h 3.1 v 8.475 h -3.1 v 4.0375 h -3.76 v 3.1 h -7.92 v -3.1 h -3.76 h -3.76 v 3.1 h -7.92 v -3.1 h -3.76 h -3.76 v 3.1 h -7.92 v -3.1 h -3.76 h -3.76 v 3.1 h -7.92 v -3.1 h -3.76 h -3.76 v 3.1 h -7.92 v -3.1 h -3.76 v -4.0375 h -3.1 v -8.475 h 3.1 v -4.0375 v -4.0375 h -3.1 v -8.475 h 3.1 v -4.0375 v -4.0375 h -3.1 v -8.475 h 3.1 v -4.0375 v -4.0375 h -3.1 v -8.475 h 3.1 v -4.0375" />
      <path
         style="fill:none;stroke:#0000FF;stroke-linecap:butt;stroke-linejoin:miter;stroke-width:0.1"
         id="box931-longside2"
         d="M -3.1 231.5 v -3.1 h 3.1 h 3.96 v 3.1 h 7.52 v -3.1 h 3.96 h 3.96 v 3.1 h 7.52 v -3.1 h 3.96 h 3.96 v 3.1 h 7.52 v -3.1 h 3.96 h 3.96 v 3.1 h 7.52 v -3.1 h 3.96 h 3.96 v 3.1 h 7.52 v -3.1 h 3.96 h 3.1 v 3.1 v 3.66 h -3.1 v 6.92 h 3.1 v 3.66 v 3.66 h -3.1 v 6.92 h 3.1 v 3.66 v 3.66 h -3.1 v 6.92 h 3.1 v 3.66 v 3.66 h -3.1 v 6.92 h 3.1 v 3.66 v 3.66 h -3.1 v 6.92 h 3.1 v 3.66 v 3.1 h -3.1 h -3.96 v -3.1 h -7.52 v 3.1 h -3.96 h -3.96 v -3.1 h -7.52 v 3.1 h -3.96 h -3.96 v -3.1 h -7.52 v 3.1 h -3.96 h -3.96 v -3.1 h -7.52 v 3.1 h -3.96 h -3.96 v -3.1 h -7.52 v 3.1 h -3.96 h -3.1 v -3.1 v -3.66 h 3.1 v -6.92 h -3.1 v -3.66 v -3.66 h 3.1 v -6.92 h -3.1 v -3.66 v -3.66 h 3.1 v -6.92 h -3.1 v -3.66 v -3.66 h 3.1 v -6.92 h -3.1 v -3.66 v -3.66 h 3.1 v -6.92 h -3.1 v -3.66" />
      <path
         style="fill:none;stroke:#0000FF;stroke-linecap:butt;stroke-linejoin:miter;stroke-width:0.1"
         id="box931-endface2"
         d="M 83.4 0 h 3.1 h 3.46 v -3.1 h 7.32 v 3.1 h 3.46 h 3.46 v -3.1 h 7.32 v 3.1 h 3.46 h 3.46 v -3.1 h 7.32 v 3.1 h 3.46 h 3.46 v -3.1 h 7.32 v 3.1 h 3.46 h 3.46 v -3.1 h 7.32 v 3.1 h 3.46 h 3.1 v 4.2375 h -3.1 v 8.075 h 3.1 v 4.2375 v 4.2375 h -3.1 v 8.075 h 3.1 v 4.2375 v 4.2375 h -3.1 v 8.075 h 3.1 v 4.2375 v 4.2375 h -3.1 v 8.075 h 3.1 v 4.2375 h -3.1 h -3.46 v 3.1 h -7.32 v -3.1 h -3.46 h -3.46 v 3.1 h -7.32 v -3.1 h -3.46 h -3.46 v 3.1 h -7.32 v -3.1 h -3.46 h -3.46 v 3.1 h -7.32 v -3.1 h -3.46 h -3.46 v 3.1 h -7.32 v -3.1 h -3.46 h -3.1 v -4.2375 h 3.1 v -8.075 h -3.1 v -4.2375 v -4.2375 h 3.1 v -8.075 h -3.1 v -4.2375 v -4.2375 h 3.1 v -8.075 h -3.1 v -4.2375 v -4.2375 h 3.1 v -8.075 h -3.1 v -4.2375" />
      <path
         style="fill:none;stroke:#0000FF;stroke-linecap:butt;stroke-linejoin:miter;stroke-width:0.1"
         id="box931-endface1"
         d="M 83.4 156 h 3.1 h 3.46 v -3.1 h 7.32 v 3.1 h 3.46 h 3.46 v -3.1 h 7.32 v 3.1 h 3.46 h 3.46 v -3.1 h 7.32 v 3.1 h 3.46 h 3.46 v -3.1 h 7.32 v 3.1 h 3.46 h 3.46 v -3.1 h 7.32 v 3.1 h 3.46 h 3.1 v 4.2375 h -3.1 v 8.075 h 3.1 v 4.2375 v 4.2375 h -3.1 v 8.075 h 3.1 v 4.2375 v 4.2375 h -3.1 v 8.075 h 3.1 v 4.2375 v 4.2375 h -3.1 v 8.075 h 3.1 v 4.2375 h -3.1 h -3.46 v 3.1 h -7.32 v -3.1 h -3.46 h -3.46 v 3.1 h -7.32 v -3.1 h -3.46 h -3.46 v 3.1 h -7.32 v -3.1 h -3.46 h -3.46 v 3.1 h -7.32 v -3.1 h -3.46 h -3.46 v 3.1 h -7.32 v -3.1 h -3.46 h -3.1 v -4.2375 h 3.1 v -8.075 h -3.1 v -4.2375 v -4.2375 h 3.1 v -8.075 h -3.1 v -4.2375 v -4.2375 h 3.1 v -8.075 h -3.1 v -4.2375 v -4.2375 h 3.1 v -8.075 h -3.1 v -4.2375" />
    </g>
    <g
       id="box6066"
       transform="translate(222.1, 81.5)">
      <path
         style="fill:none;stroke:#0000FF;stroke-linecap:butt;stroke-linejoin:miter;stroke-width:0.1"
         id="box6066-lid"
         d="M 0 0 h 3.76 v -3.1 h 7.92 v 3.1 h 3.76 h 3.76 v -3.1 h 7.92 v 3.1 h 3.76 h 3.76 v -3.1 h 7.92 v 3.1 h 3.76 h 3.76 v -3.1 h 7.92 v 3.1 h 3.76 h 3.76 v -3.1 h 7.92 v 3.1 h 3.76 v 4.0375 h 3.1 v 8.475 h -3.1 v 4.0375 v 4.0375 h 3.1 v 8.475 h -3.1 v 4.0375 v 4.0375 h 3.1 v 8.475 h -3.1 v 4.0375 v 4.0375 h 3.1 v 8.475 h -3.1 v 4.0375 h -3.76 v 3.1 h -7.92 v -3.1 h -3.76 h -3.76 v 3.1 h -7.92 v -3.1 h -3.76 h -3.76 v 3.1 h -7.92 v -3.1 h -3.76 h -3.76 v 3.1 h -7.92 v -3.1 h -3.76 h -3.76 v 3.1 h -7.92 v -3.1 h -3.76 v -4.0375 h -3.1 v -8.475 h 3.1 v -4.0375 v -4.0375 h -3.1 v -8.475 h 3.1 v -4.0375 v -4.0375 h -3.1 v -8.475 h 3.1 v -4.0375 v -4.0375 h -3.1 v -8.475 h 3.1 v -4.0375" />
      <path
         style="fill:none;stroke:#0000FF;stroke-linecap:butt;stroke-linejoin:miter;stroke-width:0.1"
         id="box6066-longside1"
         d="M -3.1 75.5 v -3.1 h 3.1 h 3.96 v 3.1 h 7.52 v -3.1 h 3.96 h 3.96 v 3.1 h 7.52 v -3.1 h 3.96 h 3.96 v 3.1 h 7.52 v -3.1 h 3.96 h 3.96 v 3.1 h 7.52 v -3.1 h 3.96 h 3.96 v 3.1 h 7.52 v -3.1 h 3.96 h 3.1 v 3.1 v 3.66 h -3.1 v 6.92 h 3.1 v 3.66 v 3.66 h -3.1 v 6.92 h 3.1 v 3.66 v 3.66 h -3.1 v 6.92 h 3.1 v 3.66 v 3.66 h -3.1 v 6.92 h 3.1 v 3.66 v 3.66 h -3.1 v 6.92 h 3.1 v 3.66 v 3.1 h -3.1 h -3.96 v -3.1 h -7.52 v 3.1 h -3.96 h -3.96 v -3.1 h -7.52 v 3.1 h -3.96 h -3.96 v -3.1 h -7.52 v 3.1 h -3.96 h -3.96 v -3.1 h -7.52 v 3.1 h -3.96 h -3.96 v -3.1 h -7.52 v 3.1 h -3.96 h -3.1 v -3.1 v -3.66 h 3.1 v -6.92 h -3.1 v -3.66 v -3.66 h 3.1 v -6.92 h -3.1 v -3.66 v -3.66 h 3.1 v -6.92 h -3.1 v -3.66 v -3.66 h 3.1 v -6.92 h -3.1 v -3.66 v -3.66 h 3.1 v -6.92 h -3.1 v -3.66" />
      <path
         style="fill:none;stroke:#0000FF;stroke-linecap:butt;stroke-linejoin:miter;stroke-width:0.1"
         id="box6066-base"
         d="M 0 156 h 3.76 v -3.1 h 7.92 v 3.1 h 3.76 h 3.76 v -3.1 h 7.92 v 3.1 h 3.76 h 3.76 v -3.1 h 7.92 v 3.1 h 3.76 h 3.76 v -3.1 h 7.92 v 3.1 h 3.76 h 3.76 v -3.1 h 7.92 v 3.1 h 3.76 v 4.0375 h 3.1 v 8.475 h -3.1 v 4.0375 v 4.0375 h 3.1 v 8.475 h -3.1 v 4.0375 v 4.0375 h 3.1 v 8.475 h -3.1 v 4.0375 v 4.0375 h 3.1 v 8.475 h -3.1 v 4.0375 h -3.76 v 3.1 h -7.92 v -3.1 h -3.76 h -3.76 v 3.1 h -7.92 v -3.1 h -3.76 h -3.76 v 3.1 h -7.92 v -3.1 h -3.76 h -3.76 v 3.1 h -7.92 v -3.1 h -3.76 h -3.76 v 3.1 h -7.92 v -3.1 h -3.76 v -4.0375 h -3.1 v -8.475 h 3.1 v -4.0375 v -4.0375 h -3.1 v -8.475 h 3.1 v -4.0375 v -4.0375 h -3.1 v -8.475 h 3.1 v -4.0375 v -4.0375 h -3.1 v -8.475 h 3.1 v -4.0375" />
      <path
         style="fill:none;stroke:#0000FF;stroke-linecap:butt;stroke-linejoin:miter;stroke-width:0.1"
         id="box6066-longside2"
         d="M -3.1 231.5 v -3.1 h 3.1 h 3.96 v 3.1 h 7.52 v -3.1 h 3.96 h 3.96 v 3.1 h 7.52 v -3.1 h 3.96 h 3.96 v 3.1 h 7.52 v -3.1 h 3.96 h 3.96 v 3.1 h 7.52 v -3.1 h 3.96 h 3.96 v 3.1 h 7.52 v -3.1 h 3.96 h 3.1 v 3.1 v 3.66 h -3.1 v 6.92 h 3.1 v 3.66 v 3.66 h -3.1 v 6.92 h 3.1 v 3.66 v 3.66 h -3.1 v 6.92 h 3.1 v 3.66 v 3.66 h -3.1 v 6.92 h 3.1 v 3.66 v 3.66 h -3.1 v 6.92 h 3.1 v 3.66 v 3.1 h -3.1 h -3.96 v -3.1 h -7.52 v 3.1 h -3.96 h -3.96 v -3.1 h -7.52 v 3.1 h -3.96 h -3.96 v -3.1 h -7.52 v 3.1 h -3.96 h -3.96 v -3.1 h -7.52 v 3.1 h -3.96 h -3.96 v -3.1 h -7.52 v 3.1 h -3.96 h -3.1 v -3.1 v -3.66 h 3.1 v -6.92 h -3.1 v -3.66 v -3.66 h 3.1 v -6.92 h -3.1 v -3.66 v -3.66 h 3.1 v -6.92 h -3.1 v -3.66 v -3.66 h 3.1 v -6.92 h -3.1 v -3.66 v -3.66 h 3.1 v -6.92 h -3.1 v -3.66" />
      <path
         style="fill:none;stroke:#0000FF;stroke-linecap:butt;stroke-linejoin:miter;stroke-width:0.1"
         id="box6066-endface2"
         d="M 83.4 0 h 3.1 h 3.46 v -3.1 h 7.32 v 3.1 h 3.46 h 3.46 v -3.1 h 7.32 v 3.1 h 3.46 h 3.46 v -3.1 h 7.32 v 3.1 h 3.46 h 3.46 v -3.1 h 7.32 v 3.1 h 3.46 h 3.46 v -3.1 h 7.32 v 3.1 h 3.46 h 3.1 v 4.2375 h -3.1 v 8.075 h 3.1 v 4.2375 v 4.2375 h -3.1 v 8.075 h 3.1 v 4.2375 v 4.2375 h -3.1 v 8.075 h 3.1 v 4.2375 v 4.2375 h -3.1 v 8.075 h 3.1 v 4.2375 h -3.1 h -3.46 v 3.1 h -7.32 v -3.1 h -3.46 h -3.46 v 3.1 h -7.32 v -3.1 h -3.46 h -3.46 v 3.1 h -7.32 v -3.1 h -3.46 h -3.46 v 3.1 h -7.32 v -3.1 h -3.46 h -3.46 v 3.1 h -7.32 v -3.1 h -3.46 h -3.1 v -4.2375 h 3.1 v -8.075 h -3.1 v -4.2375 v -4.2375 h 3.1 v -8.075 h -3.1 v -4.2375 v -4.2375 h 3.1 v -8.075 h -3.1 v -4.2375 v -4.2375 h 3.1 v -8.075 h -3.1 v -4.2375" />
      <path
         style="fill:none;stroke:#0000FF;stroke-linecap:butt;stroke-linejoin:miter;stroke-width:0.1"
         id="box6066-endface1"
         d="M 83.4 156 h 3.1 h 3.46 v -3.1 h 7.32 v 3.1 h 3.46 h 3.46 v -3.1 h 7.32 v 3.1 h 3.46 h 3.46 v -3.1 h 7.32 v 3.1 h 3.46 h 3.46 v -3.1 h 7.32 v 3.1 h 3.46 h 3.46 v -3.1 h 7.32 v 3.1 h 3.46 h 3.1 v 4.2375 h -3.1 v 8.075 h 3.1 v 4.2375 v 4.2375 h -3.1 v 8.075 h 3.1 v 4.2375 v 4.2375 h -3.1 v 8.075 h 3.1 v 4.2375 v 4.2375 h -3.1 v 8.075 h 3.1 v 4.2375 h -3.1 h -3.46 v 3.1 h -7.32 v -3.1 h -3.46 h -3.46 v 3.1 h -7.32 v -3.1 h -3.46 h -3.46 v 3.1 h -7.32 v -3.1 h -3.46 h -3.46 v 3.1 h -7.32 v -3.1 h -3.46 h -3.46 v 3.1 h -7.32 v -3.1 h -3.46 h -3.1 v -4.2375 h 3.1 v -8.075 h -3.1 v -4.2375 v -4.2375 h 3.1 v -8.075 h -3.1 v -4.2375 v -4.2375 h 3.1 v -8.075 h -3.1 v -4.2375 v -4.2375 h 3.1 v -8.075 h -3.1 v -4.2375" />
      <rect
         style="fill:#1a00ff;fill-opacity:0;stroke:#000000;stroke-width:0.264583"
         id="rect10371"
         width="27.78125"
         height="11.717261"
         x="10.733331"
         y="285.04242" />
      <rect
         style="fill:#1a00ff;fill-opacity:0;stroke:#000000;stroke-width:0.264583"
         id="rect10373"
         width="12.945683"
         height="10.488839"
         x="47.586006"
         y="285.42041" />
      <rect
         style="fill:#1a00ff;fill-opacity:0;stroke:#000000;stroke-width:0.131828"
         id="rect10375"
         width="3.7581589"
         height="4.0139642"
         x="119.71733"
         y="187.43442"
         ry="1.8790795" />
    </g>
  </g>
</svg>
